<svg xmlns="http://www.w3.org/2000/svg" xmlns:xlink="http://www.w3.org/1999/xlink" zoomAndPan="magnify" preserveAspectRatio="xMidYMid meet" version="1.0" viewBox="18.3 92.83 336.93 195.51"><defs><g/><clipPath id="id1"><path d="M 103 92.828125 L 270.960938 92.828125 L 270.960938 163 L 103 163 Z M 103 92.828125 " clip-rule="nonzero"/></clipPath><clipPath id="id2"><path d="M 103 192 L 270.960938 192 L 270.960938 230.828125 L 103 230.828125 Z M 103 192 " clip-rule="nonzero"/></clipPath><clipPath id="id3"><path d="M 103 92.828125 L 166 92.828125 L 166 124 L 103 124 Z M 103 92.828125 " clip-rule="nonzero"/></clipPath></defs><g clip-path="url(#id1)"><path fill="#ffffff" d="M 271.839844 136.589844 L 271.839844 108.015625 C 271.839844 99.664062 265.070312 92.894531 256.71875 92.894531 C 226.585938 92.894531 148.589844 92.894531 118.296875 92.894531 C 109.863281 92.894531 103.027344 99.730469 103.027344 108.164062 C 103.027344 115.054688 103.027344 123.417969 103.027344 129.285156 C 103.027344 134.894531 106.195312 140.019531 111.214844 142.53125 C 123.691406 148.769531 149.683594 161.765625 149.683594 161.765625 C 151.15625 162.5 152.953125 161.902344 153.691406 160.429688 C 154.425781 158.953125 153.828125 157.160156 152.355469 156.421875 C 152.355469 156.421875 126.363281 143.425781 113.886719 137.1875 C 110.890625 135.691406 109 132.632812 109 129.285156 C 109 123.417969 109 115.054688 109 108.164062 C 109 103.03125 113.164062 98.867188 118.296875 98.867188 C 148.589844 98.867188 226.585938 98.867188 256.71875 98.867188 C 261.769531 98.867188 265.867188 102.964844 265.867188 108.015625 C 265.867188 120.011719 265.867188 136.589844 265.867188 136.589844 C 265.867188 138.238281 267.203125 139.578125 268.851562 139.578125 C 270.5 139.578125 271.839844 138.238281 271.839844 136.589844 Z M 271.839844 136.589844 " fill-opacity="1" fill-rule="evenodd"/></g><g clip-path="url(#id2)"><path fill="#ffffff" d="M 222.511719 198.179688 C 222.511719 198.179688 248.296875 211.070312 260.832031 217.339844 C 263.917969 218.882812 265.867188 222.035156 265.867188 225.484375 C 265.867188 231.488281 265.867188 240.019531 265.867188 246.9375 C 265.867188 249.273438 264.941406 251.507812 263.289062 253.15625 C 261.640625 254.808594 259.40625 255.734375 257.070312 255.734375 C 227.03125 255.734375 147.835938 255.734375 117.796875 255.734375 C 115.460938 255.734375 113.226562 254.808594 111.578125 253.15625 C 109.929688 251.507812 109 249.273438 109 246.9375 C 109 234.917969 109 218.011719 109 218.011719 C 109 216.363281 107.664062 215.023438 106.015625 215.023438 C 104.367188 215.023438 103.027344 216.363281 103.027344 218.011719 C 103.027344 218.011719 103.027344 234.917969 103.027344 246.9375 C 103.027344 250.855469 104.582031 254.613281 107.351562 257.382812 C 110.121094 260.152344 113.878906 261.707031 117.796875 261.707031 C 147.835938 261.707031 227.03125 261.707031 257.070312 261.707031 C 260.988281 261.707031 264.746094 260.152344 267.515625 257.382812 C 270.285156 254.613281 271.839844 250.855469 271.839844 246.9375 C 271.839844 240.019531 271.839844 231.488281 271.839844 225.484375 C 271.839844 219.773438 268.613281 214.550781 263.503906 211.996094 C 250.96875 205.726562 225.183594 192.835938 225.183594 192.835938 C 223.710938 192.097656 221.914062 192.699219 221.175781 194.171875 C 220.441406 195.648438 221.039062 197.441406 222.511719 198.179688 Z M 222.511719 198.179688 " fill-opacity="1" fill-rule="evenodd"/></g><g clip-path="url(#id3)"><path fill="#ffffff" d="M 165.996094 95.882812 C 165.996094 94.230469 164.65625 92.894531 163.007812 92.894531 L 117.96875 92.894531 C 114.003906 92.894531 110.203125 94.46875 107.402344 97.269531 C 104.601562 100.070312 103.027344 103.871094 103.027344 107.835938 C 103.027344 114.027344 103.027344 120.308594 103.027344 120.308594 C 103.027344 121.957031 104.363281 123.292969 106.015625 123.292969 L 163.007812 123.292969 C 164.65625 123.292969 165.996094 121.957031 165.996094 120.308594 Z M 160.023438 98.867188 L 117.96875 98.867188 C 115.589844 98.867188 113.308594 99.8125 111.628906 101.492188 C 109.945312 103.175781 109 105.457031 109 107.835938 L 109 117.320312 L 160.023438 117.320312 Z M 160.023438 98.867188 " fill-opacity="1" fill-rule="evenodd"/></g><path fill="#ffffff" d="M 187.433594 133.605469 C 163.316406 133.605469 143.738281 153.183594 143.738281 177.300781 C 143.738281 201.417969 163.316406 220.996094 187.433594 220.996094 C 211.550781 220.996094 231.128906 201.417969 231.128906 177.300781 C 231.128906 153.183594 211.550781 133.605469 187.433594 133.605469 Z M 187.433594 139.578125 C 208.253906 139.578125 225.15625 156.480469 225.15625 177.300781 C 225.15625 198.121094 208.253906 215.023438 187.433594 215.023438 C 166.613281 215.023438 149.710938 198.121094 149.710938 177.300781 C 149.710938 156.480469 166.613281 139.578125 187.433594 139.578125 Z M 187.433594 139.578125 " fill-opacity="1" fill-rule="evenodd"/><path fill="#ffffff" d="M 187.433594 158.03125 C 176.796875 158.03125 168.164062 166.664062 168.164062 177.300781 C 168.164062 187.9375 176.796875 196.570312 187.433594 196.570312 C 198.070312 196.570312 206.703125 187.9375 206.703125 177.300781 C 206.703125 166.664062 198.070312 158.03125 187.433594 158.03125 Z M 187.433594 164.003906 C 194.773438 164.003906 200.730469 169.960938 200.730469 177.300781 C 200.730469 184.640625 194.773438 190.597656 187.433594 190.597656 C 180.09375 190.597656 174.136719 184.640625 174.136719 177.300781 C 174.136719 169.960938 180.09375 164.003906 187.433594 164.003906 Z M 187.433594 164.003906 " fill-opacity="1" fill-rule="evenodd"/><g fill="#ffffff" fill-opacity="1"><g transform="translate(18.348698, 259.014943)"><g><path d="M 11.25 -18.65625 L 11.25 -5.75 C 11.25 -3.882812 10.734375 -2.4375 9.703125 -1.40625 C 8.671875 -0.375 7.25 0.140625 5.4375 0.140625 C 3.226562 0.140625 1.398438 -0.757812 -0.046875 -2.5625 L 1.4375 -4.953125 C 2.695312 -3.585938 4.019531 -2.90625 5.40625 -2.90625 C 6.257812 -2.90625 6.914062 -3.15625 7.375 -3.65625 C 7.84375 -4.164062 8.078125 -4.898438 8.078125 -5.859375 L 8.078125 -15.828125 L 1.625 -15.828125 L 1.625 -18.65625 Z M 11.25 -18.65625 "/></g></g></g><g fill="#ffffff" fill-opacity="1"><g transform="translate(36.275987, 259.014943)"><g><path d="M 15.765625 -15.828125 L 5.59375 -15.828125 L 5.59375 -10.796875 L 14.703125 -10.796875 L 14.703125 -7.96875 L 5.59375 -7.96875 L 5.59375 -2.828125 L 16.09375 -2.828125 L 16.09375 0 L 2.453125 0 L 2.453125 -18.65625 L 15.765625 -18.65625 Z M 15.765625 -15.828125 "/></g></g></g><g fill="#ffffff" fill-opacity="1"><g transform="translate(58.385232, 259.014943)"><g><path d="M 14.953125 -15.828125 L 5.59375 -15.828125 L 5.59375 -10.4375 L 14.0625 -10.4375 L 14.0625 -7.640625 L 5.59375 -7.640625 L 5.59375 0 L 2.453125 0 L 2.453125 -18.65625 L 14.96875 -18.65625 Z M 14.953125 -15.828125 "/></g></g></g><g fill="#ffffff" fill-opacity="1"><g transform="translate(78.336901, 259.014943)"><g><path d="M 14.953125 -15.828125 L 5.59375 -15.828125 L 5.59375 -10.4375 L 14.0625 -10.4375 L 14.0625 -7.640625 L 5.59375 -7.640625 L 5.59375 0 L 2.453125 0 L 2.453125 -18.65625 L 14.96875 -18.65625 Z M 14.953125 -15.828125 "/></g></g></g><g fill="#ffffff" fill-opacity="1"><g transform="translate(98.288569, 259.014943)"><g><path d="M 15.765625 -15.828125 L 5.59375 -15.828125 L 5.59375 -10.796875 L 14.703125 -10.796875 L 14.703125 -7.96875 L 5.59375 -7.96875 L 5.59375 -2.828125 L 16.09375 -2.828125 L 16.09375 0 L 2.453125 0 L 2.453125 -18.65625 L 15.765625 -18.65625 Z M 15.765625 -15.828125 "/></g></g></g><g fill="#ffffff" fill-opacity="1"><g transform="translate(120.397809, 259.014943)"><g><path d="M 14.28125 0 L 10.875 -5.640625 C 10.695312 -5.628906 10.410156 -5.625 10.015625 -5.625 L 5.59375 -5.625 L 5.59375 0 L 2.453125 0 L 2.453125 -18.65625 L 10.015625 -18.65625 C 12.398438 -18.65625 14.25 -18.097656 15.5625 -16.984375 C 16.875 -15.867188 17.53125 -14.300781 17.53125 -12.28125 C 17.53125 -10.789062 17.195312 -9.53125 16.53125 -8.5 C 15.863281 -7.46875 14.910156 -6.710938 13.671875 -6.234375 L 17.84375 0 Z M 5.59375 -8.4375 L 10.015625 -8.4375 C 13.035156 -8.4375 14.546875 -9.691406 14.546875 -12.203125 C 14.546875 -14.617188 13.035156 -15.828125 10.015625 -15.828125 L 5.59375 -15.828125 Z M 5.59375 -8.4375 "/></g></g></g><g fill="#ffffff" fill-opacity="1"><g transform="translate(144.291698, 259.014943)"><g><path d="M 8.578125 -18.78125 C 10.992188 -18.78125 13.171875 -18.140625 15.109375 -16.859375 L 13.796875 -14.09375 C 11.898438 -15.25 10.082031 -15.828125 8.34375 -15.828125 C 7.394531 -15.828125 6.648438 -15.65625 6.109375 -15.3125 C 5.566406 -14.976562 5.296875 -14.5 5.296875 -13.875 C 5.296875 -13.257812 5.546875 -12.734375 6.046875 -12.296875 C 6.546875 -11.859375 7.164062 -11.535156 7.90625 -11.328125 C 8.65625 -11.128906 9.460938 -10.875 10.328125 -10.5625 C 11.203125 -10.25 12.007812 -9.921875 12.75 -9.578125 C 13.5 -9.234375 14.117188 -8.691406 14.609375 -7.953125 C 15.097656 -7.210938 15.34375 -6.320312 15.34375 -5.28125 C 15.34375 -3.644531 14.6875 -2.335938 13.375 -1.359375 C 12.070312 -0.378906 10.382812 0.109375 8.3125 0.109375 C 6.894531 0.109375 5.519531 -0.15625 4.1875 -0.6875 C 2.851562 -1.21875 1.6875 -1.9375 0.6875 -2.84375 L 2.046875 -5.5625 C 2.992188 -4.695312 4.03125 -4.023438 5.15625 -3.546875 C 6.28125 -3.078125 7.347656 -2.84375 8.359375 -2.84375 C 9.460938 -2.84375 10.320312 -3.039062 10.9375 -3.4375 C 11.550781 -3.84375 11.859375 -4.398438 11.859375 -5.109375 C 11.859375 -5.753906 11.609375 -6.289062 11.109375 -6.71875 C 10.609375 -7.15625 9.984375 -7.476562 9.234375 -7.6875 C 8.492188 -7.894531 7.6875 -8.144531 6.8125 -8.4375 C 5.945312 -8.726562 5.140625 -9.035156 4.390625 -9.359375 C 3.648438 -9.691406 3.03125 -10.222656 2.53125 -10.953125 C 2.03125 -11.679688 1.78125 -12.5625 1.78125 -13.59375 C 1.78125 -15.164062 2.398438 -16.421875 3.640625 -17.359375 C 4.890625 -18.304688 6.535156 -18.78125 8.578125 -18.78125 Z M 8.578125 -18.78125 "/></g></g></g><g fill="#ffffff" fill-opacity="1"><g transform="translate(165.495287, 259.014943)"><g><path d="M 3.75 -16.03125 C 5.65625 -17.832031 8 -18.734375 10.78125 -18.734375 C 13.570312 -18.734375 15.914062 -17.832031 17.8125 -16.03125 C 19.71875 -14.226562 20.671875 -11.992188 20.671875 -9.328125 C 20.671875 -6.660156 19.71875 -4.414062 17.8125 -2.59375 C 15.914062 -0.769531 13.570312 0.140625 10.78125 0.140625 C 8 0.140625 5.65625 -0.769531 3.75 -2.59375 C 1.851562 -4.414062 0.90625 -6.660156 0.90625 -9.328125 C 0.90625 -11.992188 1.851562 -14.226562 3.75 -16.03125 Z M 10.8125 -15.90625 C 8.96875 -15.90625 7.390625 -15.269531 6.078125 -14 C 4.765625 -12.726562 4.109375 -11.164062 4.109375 -9.3125 C 4.109375 -7.46875 4.769531 -5.898438 6.09375 -4.609375 C 7.414062 -3.328125 8.988281 -2.6875 10.8125 -2.6875 C 12.644531 -2.6875 14.207031 -3.328125 15.5 -4.609375 C 16.800781 -5.898438 17.453125 -7.46875 17.453125 -9.3125 C 17.453125 -11.164062 16.800781 -12.726562 15.5 -14 C 14.207031 -15.269531 12.644531 -15.90625 10.8125 -15.90625 Z M 10.8125 -15.90625 "/></g></g></g><g fill="#ffffff" fill-opacity="1"><g transform="translate(191.706582, 259.014943)"><g><path d="M 18.625 0 L 15.53125 0 L 5.59375 -13.375 L 5.59375 0 L 2.453125 0 L 2.453125 -18.65625 L 5.546875 -18.65625 L 15.53125 -5.25 L 15.53125 -18.65625 L 18.625 -18.65625 Z M 18.625 0 "/></g></g></g><g fill="#ffffff" fill-opacity="1"><g transform="translate(217.438415, 259.014943)"><g/></g></g><g fill="#ffffff" fill-opacity="1"><g transform="translate(228.946273, 259.014943)"><g><path d="M 3.75 -16.03125 C 5.65625 -17.832031 8 -18.734375 10.78125 -18.734375 C 13.570312 -18.734375 15.914062 -17.832031 17.8125 -16.03125 C 19.71875 -14.226562 20.671875 -11.992188 20.671875 -9.328125 C 20.671875 -6.660156 19.71875 -4.414062 17.8125 -2.59375 C 15.914062 -0.769531 13.570312 0.140625 10.78125 0.140625 C 8 0.140625 5.65625 -0.769531 3.75 -2.59375 C 1.851562 -4.414062 0.90625 -6.660156 0.90625 -9.328125 C 0.90625 -11.992188 1.851562 -14.226562 3.75 -16.03125 Z M 10.8125 -15.90625 C 8.96875 -15.90625 7.390625 -15.269531 6.078125 -14 C 4.765625 -12.726562 4.109375 -11.164062 4.109375 -9.3125 C 4.109375 -7.46875 4.769531 -5.898438 6.09375 -4.609375 C 7.414062 -3.328125 8.988281 -2.6875 10.8125 -2.6875 C 12.644531 -2.6875 14.207031 -3.328125 15.5 -4.609375 C 16.800781 -5.898438 17.453125 -7.46875 17.453125 -9.3125 C 17.453125 -11.164062 16.800781 -12.726562 15.5 -14 C 14.207031 -15.269531 12.644531 -15.90625 10.8125 -15.90625 Z M 10.8125 -15.90625 "/></g></g></g><g fill="#ffffff" fill-opacity="1"><g transform="translate(255.157567, 259.014943)"><g><path d="M 8.578125 -18.78125 C 10.992188 -18.78125 13.171875 -18.140625 15.109375 -16.859375 L 13.796875 -14.09375 C 11.898438 -15.25 10.082031 -15.828125 8.34375 -15.828125 C 7.394531 -15.828125 6.648438 -15.65625 6.109375 -15.3125 C 5.566406 -14.976562 5.296875 -14.5 5.296875 -13.875 C 5.296875 -13.257812 5.546875 -12.734375 6.046875 -12.296875 C 6.546875 -11.859375 7.164062 -11.535156 7.90625 -11.328125 C 8.65625 -11.128906 9.460938 -10.875 10.328125 -10.5625 C 11.203125 -10.25 12.007812 -9.921875 12.75 -9.578125 C 13.5 -9.234375 14.117188 -8.691406 14.609375 -7.953125 C 15.097656 -7.210938 15.34375 -6.320312 15.34375 -5.28125 C 15.34375 -3.644531 14.6875 -2.335938 13.375 -1.359375 C 12.070312 -0.378906 10.382812 0.109375 8.3125 0.109375 C 6.894531 0.109375 5.519531 -0.15625 4.1875 -0.6875 C 2.851562 -1.21875 1.6875 -1.9375 0.6875 -2.84375 L 2.046875 -5.5625 C 2.992188 -4.695312 4.03125 -4.023438 5.15625 -3.546875 C 6.28125 -3.078125 7.347656 -2.84375 8.359375 -2.84375 C 9.460938 -2.84375 10.320312 -3.039062 10.9375 -3.4375 C 11.550781 -3.84375 11.859375 -4.398438 11.859375 -5.109375 C 11.859375 -5.753906 11.609375 -6.289062 11.109375 -6.71875 C 10.609375 -7.15625 9.984375 -7.476562 9.234375 -7.6875 C 8.492188 -7.894531 7.6875 -8.144531 6.8125 -8.4375 C 5.945312 -8.726562 5.140625 -9.035156 4.390625 -9.359375 C 3.648438 -9.691406 3.03125 -10.222656 2.53125 -10.953125 C 2.03125 -11.679688 1.78125 -12.5625 1.78125 -13.59375 C 1.78125 -15.164062 2.398438 -16.421875 3.640625 -17.359375 C 4.890625 -18.304688 6.535156 -18.78125 8.578125 -18.78125 Z M 8.578125 -18.78125 "/></g></g></g><g fill="#ffffff" fill-opacity="1"><g transform="translate(276.361156, 259.014943)"><g><path d="M 15.1875 -15.828125 L 9.265625 -15.828125 L 9.265625 0 L 6.125 0 L 6.125 -15.828125 L 0.234375 -15.828125 L 0.234375 -18.65625 L 15.1875 -18.65625 Z M 15.1875 -15.828125 "/></g></g></g><g fill="#ffffff" fill-opacity="1"><g transform="translate(296.419375, 259.014943)"><g><path d="M 5.59375 -2.84375 L 13.671875 -2.84375 L 13.671875 0 L 2.453125 0 L 2.453125 -18.65625 L 5.59375 -18.65625 Z M 5.59375 -2.84375 "/></g></g></g><g fill="#ffffff" fill-opacity="1"><g transform="translate(315.278939, 259.014943)"><g><path d="M 15.765625 -15.828125 L 5.59375 -15.828125 L 5.59375 -10.796875 L 14.703125 -10.796875 L 14.703125 -7.96875 L 5.59375 -7.96875 L 5.59375 -2.828125 L 16.09375 -2.828125 L 16.09375 0 L 2.453125 0 L 2.453125 -18.65625 L 15.765625 -18.65625 Z M 15.765625 -15.828125 "/></g></g></g><g fill="#ffffff" fill-opacity="1"><g transform="translate(337.388191, 259.014943)"><g><path d="M 14.28125 0 L 10.875 -5.640625 C 10.695312 -5.628906 10.410156 -5.625 10.015625 -5.625 L 5.59375 -5.625 L 5.59375 0 L 2.453125 0 L 2.453125 -18.65625 L 10.015625 -18.65625 C 12.398438 -18.65625 14.25 -18.097656 15.5625 -16.984375 C 16.875 -15.867188 17.53125 -14.300781 17.53125 -12.28125 C 17.53125 -10.789062 17.195312 -9.53125 16.53125 -8.5 C 15.863281 -7.46875 14.910156 -6.710938 13.671875 -6.234375 L 17.84375 0 Z M 5.59375 -8.4375 L 10.015625 -8.4375 C 13.035156 -8.4375 14.546875 -9.691406 14.546875 -12.203125 C 14.546875 -14.617188 13.035156 -15.828125 10.015625 -15.828125 L 5.59375 -15.828125 Z M 5.59375 -8.4375 "/></g></g></g><g fill="#ffffff" fill-opacity="1"><g transform="translate(151.344787, 288.264941)"><g><path d="M 11.265625 -11.9375 L 4.21875 -11.9375 L 4.21875 -7.875 L 10.609375 -7.875 L 10.609375 -5.765625 L 4.21875 -5.765625 L 4.21875 0 L 1.84375 0 L 1.84375 -14.0625 L 11.296875 -14.0625 Z M 11.265625 -11.9375 "/></g></g></g><g fill="#ffffff" fill-opacity="1"><g transform="translate(166.399007, 288.264941)"><g><path d="M 4.21875 0 L 1.84375 0 L 1.84375 -14.0625 L 4.21875 -14.0625 Z M 4.21875 0 "/></g></g></g><g fill="#ffffff" fill-opacity="1"><g transform="translate(175.966574, 288.264941)"><g><path d="M 4.21875 -2.15625 L 10.3125 -2.15625 L 10.3125 0 L 1.84375 0 L 1.84375 -14.0625 L 4.21875 -14.0625 Z M 4.21875 -2.15625 "/></g></g></g><g fill="#ffffff" fill-opacity="1"><g transform="translate(190.196784, 288.264941)"><g><path d="M 16.71875 0 L 14.53125 0 L 14.5 -10.515625 L 10.0625 -1.46875 L 8.515625 -1.46875 L 4.078125 -10.515625 L 4.078125 0 L 1.84375 0 L 1.84375 -14.0625 L 4.65625 -14.0625 L 9.296875 -4.71875 L 13.921875 -14.0625 L 16.71875 -14.0625 Z M 16.71875 0 "/></g></g></g><g fill="#ffffff" fill-opacity="1"><g transform="translate(212.285173, 288.264941)"><g><path d="M 6.46875 -14.171875 C 8.289062 -14.171875 9.929688 -13.6875 11.390625 -12.71875 L 10.40625 -10.625 C 8.976562 -11.5 7.609375 -11.9375 6.296875 -11.9375 C 5.578125 -11.9375 5.015625 -11.804688 4.609375 -11.546875 C 4.203125 -11.296875 4 -10.9375 4 -10.46875 C 4 -10 4.1875 -9.597656 4.5625 -9.265625 C 4.9375 -8.941406 5.40625 -8.703125 5.96875 -8.546875 C 6.53125 -8.390625 7.140625 -8.191406 7.796875 -7.953125 C 8.453125 -7.722656 9.0625 -7.476562 9.625 -7.21875 C 10.1875 -6.957031 10.648438 -6.550781 11.015625 -6 C 11.390625 -5.445312 11.578125 -4.773438 11.578125 -3.984375 C 11.578125 -2.742188 11.082031 -1.753906 10.09375 -1.015625 C 9.113281 -0.285156 7.835938 0.078125 6.265625 0.078125 C 5.191406 0.078125 4.148438 -0.117188 3.140625 -0.515625 C 2.140625 -0.921875 1.265625 -1.46875 0.515625 -2.15625 L 1.546875 -4.203125 C 2.253906 -3.546875 3.035156 -3.039062 3.890625 -2.6875 C 4.742188 -2.332031 5.550781 -2.15625 6.3125 -2.15625 C 7.144531 -2.15625 7.789062 -2.300781 8.25 -2.59375 C 8.707031 -2.894531 8.9375 -3.316406 8.9375 -3.859375 C 8.9375 -4.335938 8.75 -4.738281 8.375 -5.0625 C 8 -5.394531 7.53125 -5.640625 6.96875 -5.796875 C 6.40625 -5.953125 5.796875 -6.140625 5.140625 -6.359375 C 4.484375 -6.578125 3.875 -6.8125 3.3125 -7.0625 C 2.75 -7.3125 2.28125 -7.707031 1.90625 -8.25 C 1.53125 -8.800781 1.34375 -9.46875 1.34375 -10.25 C 1.34375 -11.4375 1.8125 -12.382812 2.75 -13.09375 C 3.6875 -13.8125 4.925781 -14.171875 6.46875 -14.171875 Z M 6.46875 -14.171875 "/></g></g></g></svg>