<svg xmlns="http://www.w3.org/2000/svg" xmlns:xlink="http://www.w3.org/1999/xlink" zoomAndPan="magnify" preserveAspectRatio="xMidYMid meet" version="1.0" viewBox="76.68 93.61 219.94 178.33"><defs><g><g id="id1"/><g id="id2"/></g><clipPath id="id3"><path d="M 87.917969 93.605469 L 287.417969 93.605469 L 287.417969 246.605469 L 87.917969 246.605469 Z M 87.917969 93.605469 " clip-rule="nonzero"/></clipPath></defs><g clip-path="url(#id3)"><path fill="rgb(100%, 100%, 100%)" d="M 287.378906 219.765625 L 287.378906 220.925781 C 287.378906 227.714844 284.660156 234.269531 279.863281 239.0625 C 275.0625 243.855469 268.507812 246.574219 261.710938 246.574219 C 223.449219 246.574219 151.847656 246.574219 113.585938 246.574219 C 106.789062 246.574219 100.230469 243.855469 95.433594 239.0625 C 90.636719 234.226562 87.917969 227.714844 87.917969 220.882812 L 87.917969 219.726562 L 99.3125 219.726562 L 99.3125 220.882812 C 99.3125 224.679688 100.832031 228.273438 103.511719 230.953125 C 106.1875 233.628906 109.828125 235.148438 113.585938 235.148438 L 165.238281 235.148438 C 156.523438 231.75 148.765625 226.4375 142.492188 219.726562 L 154.285156 219.726562 C 163.480469 226.996094 175.074219 231.3125 187.667969 231.3125 C 200.261719 231.3125 211.855469 226.957031 221.050781 219.726562 L 232.804688 219.726562 C 226.527344 226.4375 218.773438 231.75 210.058594 235.148438 L 261.710938 235.148438 C 265.507812 235.148438 269.105469 233.628906 271.785156 230.953125 C 274.464844 228.273438 275.984375 224.640625 275.984375 220.882812 L 275.984375 219.726562 L 287.378906 219.726562 Z M 124.179688 108.621094 L 145.25 108.621094 L 152.445312 93.636719 L 222.890625 93.636719 L 230.085938 108.621094 L 261.75 108.621094 C 268.546875 108.621094 275.105469 111.335938 279.902344 116.132812 C 284.699219 120.925781 287.417969 127.476562 287.417969 134.269531 L 287.417969 135.429688 L 276.023438 135.429688 L 276.023438 134.269531 C 276.023438 130.472656 274.503906 126.878906 271.824219 124.203125 C 269.148438 121.523438 265.507812 120.007812 261.75 120.007812 L 210.058594 120.007812 C 218.773438 123.402344 226.527344 128.714844 232.804688 135.429688 L 221.050781 135.429688 C 211.855469 128.15625 200.261719 123.84375 187.667969 123.84375 C 175.074219 123.84375 163.480469 128.195312 154.285156 135.429688 L 142.53125 135.429688 C 148.808594 128.714844 156.5625 123.402344 165.277344 120.007812 L 113.585938 120.007812 C 109.785156 120.007812 106.1875 121.523438 103.511719 124.203125 C 100.832031 126.878906 99.3125 130.515625 99.3125 134.269531 L 99.3125 135.429688 L 87.917969 135.429688 L 87.917969 134.269531 C 87.917969 127.476562 90.636719 120.925781 95.433594 116.132812 C 99.074219 112.496094 103.671875 110.058594 108.628906 109.101562 L 108.628906 104.34375 L 124.179688 104.34375 Z M 263.871094 127.277344 C 263.871094 126.039062 262.871094 125.039062 261.628906 125.039062 C 258.3125 125.039062 252.117188 125.039062 248.796875 125.039062 C 247.558594 125.039062 246.558594 126.039062 246.558594 127.277344 C 246.558594 128.515625 247.558594 129.515625 248.796875 129.515625 C 252.117188 129.515625 258.3125 129.515625 261.628906 129.515625 C 262.871094 129.515625 263.871094 128.515625 263.871094 127.277344 Z M 263.871094 127.277344 " fill-opacity="1" fill-rule="evenodd"/></g><g fill="rgb(100%, 100%, 100%)" fill-opacity="1"><g transform="translate(74.555458, 197.814244)"><g><path d="M 31.328125 -7.078125 C 34.140625 -9.929688 35.546875 -13.671875 35.546875 -18.296875 C 35.546875 -22.929688 34.148438 -26.664062 31.359375 -29.5 C 28.566406 -32.332031 25.03125 -33.75 20.75 -33.75 C 16.46875 -33.75 12.921875 -32.332031 10.109375 -29.5 C 7.296875 -26.664062 5.890625 -22.929688 5.890625 -18.296875 C 5.890625 -13.671875 7.296875 -9.929688 10.109375 -7.078125 C 12.921875 -4.234375 16.457031 -2.8125 20.71875 -2.8125 C 24.976562 -2.8125 28.515625 -4.234375 31.328125 -7.078125 Z M 7.5 -4.90625 C 3.914062 -8.425781 2.125 -12.890625 2.125 -18.296875 C 2.125 -23.710938 3.914062 -28.179688 7.5 -31.703125 C 11.09375 -35.222656 15.515625 -36.984375 20.765625 -36.984375 C 26.023438 -36.984375 30.441406 -35.222656 34.015625 -31.703125 C 37.585938 -28.179688 39.375 -23.710938 39.375 -18.296875 C 39.375 -12.890625 37.585938 -8.425781 34.015625 -4.90625 C 30.441406 -1.382812 26.023438 0.375 20.765625 0.375 C 15.515625 0.375 11.09375 -1.382812 7.5 -4.90625 Z M 7.5 -4.90625 "/></g></g></g><g fill="rgb(100%, 100%, 100%)" fill-opacity="1"><g transform="translate(125.2309, 197.814244)"><g><path d="M 6.625 -26.953125 C 6.625 -25.503906 7.003906 -24.316406 7.765625 -23.390625 C 8.535156 -22.472656 9.519531 -21.789062 10.71875 -21.34375 C 11.914062 -20.90625 13.238281 -20.523438 14.6875 -20.203125 C 16.144531 -19.890625 17.597656 -19.539062 19.046875 -19.15625 C 20.492188 -18.769531 21.816406 -18.265625 23.015625 -17.640625 C 24.222656 -17.023438 25.207031 -16.078125 25.96875 -14.796875 C 26.726562 -13.523438 27.109375 -11.953125 27.109375 -10.078125 C 27.109375 -7.285156 26.066406 -4.84375 23.984375 -2.75 C 21.898438 -0.664062 19.039062 0.375 15.40625 0.375 C 11.78125 0.375 8.835938 -0.4375 6.578125 -2.0625 C 4.316406 -3.695312 3.1875 -5.894531 3.1875 -8.65625 L 7.109375 -8.65625 C 7.253906 -6.957031 7.976562 -5.550781 9.28125 -4.4375 C 10.59375 -3.320312 12.546875 -2.765625 15.140625 -2.765625 C 17.742188 -2.765625 19.816406 -3.4375 21.359375 -4.78125 C 22.898438 -6.125 23.671875 -7.789062 23.671875 -9.78125 C 23.671875 -11.78125 22.960938 -13.285156 21.546875 -14.296875 C 20.128906 -15.304688 18.421875 -16.003906 16.421875 -16.390625 C 14.421875 -16.785156 12.421875 -17.238281 10.421875 -17.75 C 8.421875 -18.257812 6.710938 -19.253906 5.296875 -20.734375 C 3.890625 -22.222656 3.1875 -24.382812 3.1875 -27.21875 C 3.1875 -30.050781 4.238281 -32.382812 6.34375 -34.21875 C 8.445312 -36.0625 11.222656 -36.984375 14.671875 -36.984375 C 18.117188 -36.984375 20.832031 -36.1875 22.8125 -34.59375 C 24.789062 -33 25.992188 -30.878906 26.421875 -28.234375 L 22.234375 -28.234375 C 22.085938 -29.710938 21.34375 -31.007812 20 -32.125 C 18.65625 -33.238281 16.816406 -33.796875 14.484375 -33.796875 C 12.148438 -33.796875 10.253906 -33.210938 8.796875 -32.046875 C 7.347656 -30.878906 6.625 -29.179688 6.625 -26.953125 Z M 6.625 -26.953125 "/></g></g></g><g fill="rgb(100%, 100%, 100%)" fill-opacity="1"><g transform="translate(164.76322, 197.814244)"><g><path d="M 2.59375 -33.59375 L 2.59375 -36.609375 L 25.46875 -36.609375 L 25.46875 -33.59375 L 15.859375 -33.59375 L 15.859375 0 L 12.203125 0 L 12.203125 -33.59375 Z M 2.59375 -33.59375 "/></g></g></g><g fill="rgb(100%, 100%, 100%)" fill-opacity="1"><g transform="translate(202.066906, 197.814244)"><g><path d="M 3.984375 -36.609375 L 7.6875 -36.609375 L 7.6875 -2.859375 L 21.015625 -2.859375 L 21.015625 0 L 3.984375 0 Z M 3.984375 -36.609375 "/></g></g></g><g fill="rgb(100%, 100%, 100%)" fill-opacity="1"><g transform="translate(233.37454, 197.814244)"><g><path d="M 22.609375 -36.609375 L 22.609375 -33.59375 L 7.6875 -33.59375 L 7.6875 -19.890625 L 21.015625 -19.890625 L 21.015625 -16.921875 L 7.6875 -16.921875 L 7.6875 -2.96875 L 22.609375 -2.96875 L 22.609375 0 L 3.984375 0 L 3.984375 -36.609375 Z M 22.609375 -36.609375 "/></g></g></g><g fill="rgb(100%, 100%, 100%)" fill-opacity="1"><g transform="translate(268.449603, 197.814244)"><g><path d="M 7.6875 -15.328125 L 7.6875 0 L 3.984375 0 L 3.984375 -36.609375 L 15.171875 -36.609375 C 19.273438 -36.609375 22.390625 -35.625 24.515625 -33.65625 C 26.640625 -31.695312 27.703125 -29.210938 27.703125 -26.203125 C 27.703125 -23.203125 26.867188 -20.769531 25.203125 -18.90625 C 23.535156 -17.050781 21.0625 -15.914062 17.78125 -15.5 L 28.171875 0 L 23.34375 0 L 13.421875 -15.328125 Z M 7.6875 -33.59375 L 7.6875 -18.359375 L 15.171875 -18.359375 C 21.015625 -18.359375 23.9375 -20.894531 23.9375 -25.96875 C 23.9375 -31.050781 21.015625 -33.59375 15.171875 -33.59375 Z M 7.6875 -33.59375 "/></g></g></g><g fill="rgb(100%, 100%, 100%)" fill-opacity="1"><g transform="translate(97.304526, 271.806897)"><g><path d="M 1.140625 0 L 1.140625 -10.46875 L 7.03125 -10.46875 L 7.03125 -9.375 L 2.515625 -9.375 L 2.515625 -5.8125 L 6.078125 -5.8125 L 6.078125 -4.734375 L 2.515625 -4.734375 L 2.515625 0 Z M 1.140625 0 "/></g></g></g><g fill="rgb(100%, 100%, 100%)" fill-opacity="1"><g transform="translate(111.966548, 271.806897)"><g><path d="M 1.140625 0 L 1.140625 -10.46875 L 2.515625 -10.46875 L 2.515625 0 Z M 1.140625 0 "/></g></g></g><g fill="rgb(100%, 100%, 100%)" fill-opacity="1"><g transform="translate(122.870239, 271.806897)"><g><path d="M 1.140625 -10.46875 L 2.515625 -10.46875 L 2.515625 -1.0625 L 6.1875 -1.0625 L 6.1875 0 L 1.140625 0 Z M 1.140625 -10.46875 "/></g></g></g><g fill="rgb(100%, 100%, 100%)" fill-opacity="1"><g transform="translate(136.611552, 271.806897)"><g><path d="M 11.8125 -10.46875 L 11.8125 0 L 10.421875 0 L 10.421875 -7.625 L 6.921875 0 L 6.03125 0 L 2.515625 -7.625 L 2.515625 0 L 1.140625 0 L 1.140625 -10.46875 L 2.53125 -10.46875 L 6.484375 -1.890625 L 10.40625 -10.46875 Z M 11.8125 -10.46875 "/></g></g></g><g fill="rgb(100%, 100%, 100%)" fill-opacity="1"><g transform="translate(156.812958, 271.806897)"><g/></g></g><g fill="rgb(100%, 100%, 100%)" fill-opacity="1"><g transform="translate(168.607181, 271.806897)"><g><path d="M 6.609375 -2.109375 C 6.421875 -1.460938 6.054688 -0.925781 5.515625 -0.5 C 4.984375 -0.0820312 4.320312 0.125 3.53125 0.125 C 2.75 0.125 2.0625 -0.160156 1.46875 -0.734375 C 0.875 -1.316406 0.578125 -2.054688 0.578125 -2.953125 C 0.578125 -3.859375 0.863281 -4.597656 1.4375 -5.171875 C 2.019531 -5.742188 2.726562 -6.03125 3.5625 -6.03125 C 3.675781 -6.03125 3.804688 -5.984375 3.953125 -5.890625 L 3.359375 -6.34375 C 2.660156 -7.25 2.3125 -8.039062 2.3125 -8.71875 C 2.3125 -9.40625 2.554688 -9.988281 3.046875 -10.46875 C 3.535156 -10.945312 4.191406 -11.1875 5.015625 -11.1875 C 5.847656 -11.1875 6.507812 -10.953125 7 -10.484375 C 7.5 -10.015625 7.75 -9.457031 7.75 -8.8125 C 7.75 -8.59375 7.710938 -8.359375 7.640625 -8.109375 L 6.25 -8.109375 C 6.3125 -8.296875 6.34375 -8.539062 6.34375 -8.84375 C 6.34375 -9.144531 6.21875 -9.421875 5.96875 -9.671875 C 5.726562 -9.921875 5.410156 -10.046875 5.015625 -10.046875 C 4.628906 -10.046875 4.3125 -9.921875 4.0625 -9.671875 C 3.820312 -9.421875 3.703125 -9.085938 3.703125 -8.671875 C 3.703125 -8.253906 3.929688 -7.738281 4.390625 -7.125 L 9.859375 0 L 8.1875 0 Z M 2.375 -1.5625 C 2.726562 -1.1875 3.15625 -1 3.65625 -1 C 4.15625 -1 4.585938 -1.1875 4.953125 -1.5625 C 5.316406 -1.945312 5.5 -2.414062 5.5 -2.96875 C 5.5 -3.519531 5.316406 -3.984375 4.953125 -4.359375 C 4.597656 -4.742188 4.164062 -4.9375 3.65625 -4.9375 C 3.15625 -4.9375 2.726562 -4.75 2.375 -4.375 C 2.019531 -4 1.84375 -3.53125 1.84375 -2.96875 C 1.84375 -2.414062 2.019531 -1.945312 2.375 -1.5625 Z M 2.375 -1.5625 "/></g></g></g><g fill="rgb(100%, 100%, 100%)" fill-opacity="1"><g transform="translate(185.955874, 271.806897)"><g/></g></g><g fill="rgb(100%, 100%, 100%)" fill-opacity="1"><g transform="translate(197.750103, 271.806897)"><g><path d="M 4.53125 -10.46875 C 5.707031 -10.46875 6.601562 -10.179688 7.21875 -9.609375 C 7.84375 -9.035156 8.15625 -8.300781 8.15625 -7.40625 C 8.15625 -6.507812 7.851562 -5.769531 7.25 -5.1875 C 6.65625 -4.613281 5.75 -4.328125 4.53125 -4.328125 L 2.515625 -4.328125 L 2.515625 0 L 1.140625 0 L 1.140625 -10.46875 Z M 2.515625 -5.40625 L 4.53125 -5.40625 C 5.289062 -5.40625 5.851562 -5.578125 6.21875 -5.921875 C 6.582031 -6.273438 6.765625 -6.765625 6.765625 -7.390625 C 6.765625 -8.710938 6.019531 -9.375 4.53125 -9.375 L 2.515625 -9.375 Z M 2.515625 -5.40625 "/></g></g></g><g fill="rgb(100%, 100%, 100%)" fill-opacity="1"><g transform="translate(213.74037, 271.806897)"><g><path d="M 7.78125 -10.46875 L 9.171875 -10.46875 L 9.171875 0 L 7.78125 0 L 7.78125 -4.734375 L 2.515625 -4.734375 L 2.515625 0 L 1.140625 0 L 1.140625 -10.46875 L 2.515625 -10.46875 L 2.515625 -5.8125 L 7.78125 -5.8125 Z M 7.78125 -10.46875 "/></g></g></g><g fill="rgb(100%, 100%, 100%)" fill-opacity="1"><g transform="translate(231.300378, 271.806897)"><g><path d="M 8.734375 -2.25 C 9.472656 -3.007812 9.84375 -4.003906 9.84375 -5.234375 C 9.84375 -6.472656 9.472656 -7.46875 8.734375 -8.21875 C 7.992188 -8.976562 7.050781 -9.359375 5.90625 -9.359375 C 4.769531 -9.359375 3.832031 -8.976562 3.09375 -8.21875 C 2.351562 -7.46875 1.984375 -6.472656 1.984375 -5.234375 C 1.984375 -4.003906 2.351562 -3.007812 3.09375 -2.25 C 3.84375 -1.5 4.785156 -1.125 5.921875 -1.125 C 7.054688 -1.125 7.992188 -1.5 8.734375 -2.25 Z M 5.921875 0.109375 C 4.421875 0.109375 3.15625 -0.394531 2.125 -1.40625 C 1.101562 -2.425781 0.59375 -3.707031 0.59375 -5.25 C 0.59375 -6.789062 1.101562 -8.0625 2.125 -9.0625 C 3.15625 -10.070312 4.421875 -10.578125 5.921875 -10.578125 C 7.421875 -10.578125 8.679688 -10.070312 9.703125 -9.0625 C 10.722656 -8.0625 11.234375 -6.785156 11.234375 -5.234375 C 11.234375 -3.691406 10.722656 -2.414062 9.703125 -1.40625 C 8.679688 -0.394531 7.421875 0.109375 5.921875 0.109375 Z M 5.921875 0.109375 "/></g></g></g><g fill="rgb(100%, 100%, 100%)" fill-opacity="1"><g transform="translate(250.369758, 271.806897)"><g><path d="M 0.671875 -9.375 L 0.671875 -10.46875 L 7.5625 -10.46875 L 7.5625 -9.375 L 4.8125 -9.375 L 4.8125 0 L 3.4375 0 L 3.4375 -9.375 Z M 0.671875 -9.375 "/></g></g></g><g fill="rgb(100%, 100%, 100%)" fill-opacity="1"><g transform="translate(265.877028, 271.806897)"><g><path d="M 8.734375 -2.25 C 9.472656 -3.007812 9.84375 -4.003906 9.84375 -5.234375 C 9.84375 -6.472656 9.472656 -7.46875 8.734375 -8.21875 C 7.992188 -8.976562 7.050781 -9.359375 5.90625 -9.359375 C 4.769531 -9.359375 3.832031 -8.976562 3.09375 -8.21875 C 2.351562 -7.46875 1.984375 -6.472656 1.984375 -5.234375 C 1.984375 -4.003906 2.351562 -3.007812 3.09375 -2.25 C 3.84375 -1.5 4.785156 -1.125 5.921875 -1.125 C 7.054688 -1.125 7.992188 -1.5 8.734375 -2.25 Z M 5.921875 0.109375 C 4.421875 0.109375 3.15625 -0.394531 2.125 -1.40625 C 1.101562 -2.425781 0.59375 -3.707031 0.59375 -5.25 C 0.59375 -6.789062 1.101562 -8.0625 2.125 -9.0625 C 3.15625 -10.070312 4.421875 -10.578125 5.921875 -10.578125 C 7.421875 -10.578125 8.679688 -10.070312 9.703125 -9.0625 C 10.722656 -8.0625 11.234375 -6.785156 11.234375 -5.234375 C 11.234375 -3.691406 10.722656 -2.414062 9.703125 -1.40625 C 8.679688 -0.394531 7.421875 0.109375 5.921875 0.109375 Z M 5.921875 0.109375 "/></g></g></g></svg>